<?xml version="1.0" encoding="UTF-8" standalone="no"?>
<svg
   width="1200"
   height="1200"
   viewBox="0 0 317.49999 317.50001"
   version="1.1"
   id="svg8"
   inkscape:version="1.3 (0e150ed6c4, 2023-07-21)"
   sodipodi:docname="discord.svg"
   inkscape:export-filename="..\png72\discord.png"
   inkscape:export-xdpi="5.7600002"
   inkscape:export-ydpi="5.7600002"
   xmlns:inkscape="http://www.inkscape.org/namespaces/inkscape"
   xmlns:sodipodi="http://sodipodi.sourceforge.net/DTD/sodipodi-0.dtd"
   xmlns="http://www.w3.org/2000/svg"
   xmlns:svg="http://www.w3.org/2000/svg"
   xmlns:rdf="http://www.w3.org/1999/02/22-rdf-syntax-ns#"
   xmlns:cc="http://creativecommons.org/ns#"
   xmlns:dc="http://purl.org/dc/elements/1.1/">
  <defs
     id="defs2" />
  <sodipodi:namedview
     id="base"
     pagecolor="#dedede"
     bordercolor="#666666"
     borderopacity="1.0"
     inkscape:pageopacity="0.0"
     inkscape:pageshadow="2"
     inkscape:zoom="0.5"
     inkscape:cx="688"
     inkscape:cy="586"
     inkscape:document-units="px"
     inkscape:current-layer="layer1"
     inkscape:document-rotation="0"
     showgrid="false"
     units="px"
     inkscape:showpageshadow="2"
     inkscape:pagecheckerboard="0"
     inkscape:deskcolor="#d1d1d1"
     inkscape:window-width="1920"
     inkscape:window-height="1051"
     inkscape:window-x="-9"
     inkscape:window-y="-9"
     inkscape:window-maximized="1">
    <inkscape:grid
       type="xygrid"
       id="grid833"
       empspacing="4"
       spacingx="6.6145833"
       spacingy="6.6145833"
       originx="0"
       originy="0"
       units="px"
       visible="false" />
  </sodipodi:namedview>
  <metadata
     id="metadata5">
    <rdf:RDF>
      <cc:Work
         rdf:about="">
        <dc:format>image/svg+xml</dc:format>
        <dc:type
           rdf:resource="http://purl.org/dc/dcmitype/StillImage" />
      </cc:Work>
    </rdf:RDF>
  </metadata>
  <g
     inkscape:label="Layer 1"
     inkscape:groupmode="layer"
     id="layer1">
    <circle
       style="fill:none;stroke:#000000;stroke-width:2.64583333;stroke-linecap:round;stroke-dasharray:none"
       id="path7"
       cx="910.92035"
       cy="-89.868378"
       r="393.47116" />
    <circle
       style="fill:none;stroke:#000000;stroke-width:2.64583333;stroke-linecap:round;stroke-dasharray:none"
       id="circle7"
       cx="1448.0436"
       cy="-89.868378"
       r="393.47116" />
    <circle
       style="fill:none;stroke:#000000;stroke-width:2.64584;stroke-linecap:round;stroke-dasharray:none"
       id="circle8"
       cx="1179.4843"
       cy="129.68495"
       r="405.55997" />
    <circle
       style="fill:none;stroke:#000000;stroke-width:2.64584;stroke-linecap:round;stroke-dasharray:none"
       id="circle9"
       cx="1179.4843"
       cy="140.01794"
       r="405.55997" />
    <circle
       style="fill:none;stroke:#000000;stroke-width:2.64584;stroke-linecap:round;stroke-dasharray:none"
       id="circle10"
       cx="1179.4843"
       cy="-353.00583"
       r="279.8364" />
    <circle
       style="fill:none;stroke:#000000;stroke-width:2.64584;stroke-linecap:round;stroke-dasharray:none"
       id="circle11"
       cx="1179.4843"
       cy="-351.04602"
       r="241.20723" />
    <path
       sodipodi:type="star"
       style="fill:none;stroke:#000000;stroke-width:2.64583;stroke-linecap:round;stroke-dasharray:none"
       id="path11"
       inkscape:flatsided="true"
       sodipodi:sides="3"
       sodipodi:cx="1144.9827"
       sodipodi:cy="-493.91406"
       sodipodi:r1="101.834"
       sodipodi:r2="50.917"
       sodipodi:arg1="0.52359878"
       sodipodi:arg2="1.5707963"
       inkscape:rounded="0"
       inkscape:randomized="0"
       d="m 1233.1735,-442.99706 -176.3817,0 88.1909,-152.751 z"
       inkscape:transform-center-x="-5.3992018e-05"
       inkscape:transform-center-y="25.458493"
       transform="rotate(180,1162.2335,-413.90284)" />
    <path
       sodipodi:type="star"
       style="fill:none;stroke:#000000;stroke-width:2.27368;stroke-linecap:round;stroke-dasharray:none"
       id="path12"
       inkscape:flatsided="true"
       sodipodi:sides="3"
       sodipodi:cx="1144.9827"
       sodipodi:cy="-493.91406"
       sodipodi:r1="101.834"
       sodipodi:r2="50.917"
       sodipodi:arg1="0.52359878"
       sodipodi:arg2="1.5707963"
       inkscape:rounded="0"
       inkscape:randomized="0"
       d="m 1233.1735,-442.99706 -176.3817,0 88.1909,-152.751 z"
       inkscape:transform-center-x="5.4424978e-05"
       inkscape:transform-center-y="-34.474474"
       transform="matrix(1,0,0,1.3541454,34.50156,630.82926)" />
    <path
       sodipodi:type="star"
       style="fill:none;stroke:#000000;stroke-width:1.63064;stroke-linecap:round;stroke-dasharray:none"
       id="path13"
       inkscape:flatsided="true"
       sodipodi:sides="3"
       sodipodi:cx="1144.9827"
       sodipodi:cy="-493.91406"
       sodipodi:r1="101.834"
       sodipodi:r2="50.917"
       sodipodi:arg1="0.52359878"
       sodipodi:arg2="1.5707963"
       inkscape:rounded="0"
       inkscape:randomized="0"
       d="m 1233.1735,-442.99706 -176.3817,0 88.1909,-152.751 z"
       inkscape:transform-center-x="9.0482964e-05"
       inkscape:transform-center-y="-44.014083"
       transform="matrix(1.5228344,0,0,1.7288585,-564.1348,797.14371)" />
    <circle
       style="fill:none;stroke:#000000;stroke-width:2.64584;stroke-linecap:round;stroke-dasharray:none"
       id="circle13"
       cx="1179.4843"
       cy="-361.52298"
       r="241.20723" />
    <path
       id="path32"
       style="fill:#ffffff;stroke:none;stroke-width:2.64584;stroke-linecap:round"
       d="m 188.27435,42.610262 -7.04774,12.206885 a 488.52841,488.52841 0 0 0 -22.8887,-0.690956 488.52841,488.52841 0 0 0 -22.16661,1.939656 l -6.84109,-11.848958 a 488.52841,488.52841 0 0 0 -55.824235,4.883999 488.52841,488.52841 0 0 0 -13.281291,3.558734 473.96651,473.96651 0 0 0 -6.633175,14.224351 473.96651,473.96651 0 0 0 -17.135703,36.748287 473.96651,473.96651 0 0 0 -21.382903,79.8029 473.96651,473.96651 0 0 0 -0.501721,5.7312 473.96651,473.96651 0 0 0 -1.046394,11.96225 473.96651,473.96651 0 0 0 -4.3331009,49.52659 337.08463,337.08463 0 0 0 2.8908099,1.8164 337.08463,337.08463 0 0 0 55.547241,19.43702 337.08463,337.08463 0 0 0 15.700259,5.49341 337.08463,337.08463 0 0 0 24.666503,2.77939 l 17.9692,-42.14644 a 290.5528,290.5528 0 0 1 -32.281331,-3.63717 290.5528,290.5528 0 0 1 -5.924164,-2.07286 l 5.448585,-10.71418 a 290.5528,290.5528 0 0 0 0.475579,0.16683 290.5528,290.5528 0 0 0 37.415571,4.21608 c 9.02599,1.45087 18.11544,0.67225 27.23797,1.26613 9.12295,-0.59405 18.21285,0.18437 27.23922,-1.26676 a 290.5528,290.5528 0 0 0 37.41495,-4.21545 290.5528,290.5528 0 0 0 0.47558,-0.1662 l 5.44858,10.71355 a 290.5528,290.5528 0 0 1 -5.92416,2.07286 290.5528,290.5528 0 0 1 -32.28072,3.63717 l 17.96922,42.14644 a 337.08463,337.08463 0 0 0 24.66588,-2.77939 337.08463,337.08463 0 0 0 15.69963,-5.49341 337.08463,337.08463 0 0 0 55.54786,-19.43702 337.08463,337.08463 0 0 0 3.71435,-2.33368 473.96651,473.96651 0 0 0 -0.44506,-14.16025 473.96651,473.96651 0 0 0 -2.8018,-29.64324 473.96651,473.96651 0 0 0 -0.92252,-5.82582 473.96651,473.96651 0 0 0 -1.81827,-11.47796 473.96651,473.96651 0 0 0 -1.91725,-12.1048 473.96651,473.96651 0 0 0 -6.49499,-29.05811 473.96651,473.96651 0 0 0 -8.30703,-28.59311 A 473.96651,473.96651 0 0 0 275.51529,91.259792 473.96651,473.96651 0 0 0 264.59944,66.03553 473.96651,473.96651 0 0 0 263.68999,63.933406 473.96651,473.96651 0 0 0 257.66,52.098765 488.52841,488.52841 0 0 0 246.39804,49.681043 488.52841,488.52841 0 0 0 217.22352,45.240874 488.52841,488.52841 0 0 0 188.27435,42.610262 Z m -29.93644,50.931554 0.249,0.489263 -0.24837,0.429517 -0.249,-0.430757 z m -52.81268,34.938694 a 29.091897,33.981291 0 0 1 29.09173,33.98134 29.091897,33.981291 0 0 1 -29.09173,33.98132 29.091897,33.981291 0 0 1 -29.091719,-33.98132 29.091897,33.981291 0 0 1 29.091719,-33.98134 z m 106.44953,0 a 29.091897,33.981291 0 0 1 29.09173,33.98134 29.091897,33.981291 0 0 1 -29.09173,33.98132 29.091897,33.981291 0 0 1 -29.09173,-33.98132 29.091897,33.981291 0 0 1 29.09173,-33.98134 z" />
  </g>
</svg>
