<?xml version="1.0" encoding="UTF-8" standalone="no"?>
<!-- Uploaded to: SVG Repo, www.svgrepo.com, Generator: SVG Repo Mixer Tools -->

<svg
   width="800px"
   height="800px"
   viewBox="0 -2.5 20 20"
   version="1.1"
   id="svg1"
   sodipodi:docname="email-1572-svgrepo-com.svg"
   inkscape:export-filename="..\png72\email.png"
   inkscape:export-xdpi="8.6400003"
   inkscape:export-ydpi="8.6400003"
   inkscape:version="1.3 (0e150ed6c4, 2023-07-21)"
   xmlns:inkscape="http://www.inkscape.org/namespaces/inkscape"
   xmlns:sodipodi="http://sodipodi.sourceforge.net/DTD/sodipodi-0.dtd"
   xmlns="http://www.w3.org/2000/svg"
   xmlns:svg="http://www.w3.org/2000/svg">
  <sodipodi:namedview
     id="namedview1"
     pagecolor="#ffffff"
     bordercolor="#000000"
     borderopacity="0.25"
     inkscape:showpageshadow="2"
     inkscape:pageopacity="0.0"
     inkscape:pagecheckerboard="0"
     inkscape:deskcolor="#d1d1d1"
     inkscape:zoom="1.045"
     inkscape:cx="400"
     inkscape:cy="399.04306"
     inkscape:window-width="1920"
     inkscape:window-height="1051"
     inkscape:window-x="-9"
     inkscape:window-y="-9"
     inkscape:window-maximized="1"
     inkscape:current-layer="svg1" />
  <title
     id="title1">email [#1572]</title>
  <desc
     id="desc1">Created with Sketch.</desc>
  <defs
     id="defs1" />
  <g
     id="Page-1"
     stroke="none"
     stroke-width="1"
     fill="none"
     fill-rule="evenodd"
     style="display:none">
    <g
       id="Dribbble-Light-Preview"
       transform="translate(-340,-922)"
       fill="#000000"
       style="display:inline">
      <g
         id="icons"
         transform="translate(56,160)">
        <path
           d="m 294,774.474 -10,-8.825 V 777 h 20 v -11.351 z m 10e-4,-2.662 L 284,762.981 V 762 h 20 v 0.981 z"
           id="email-[#1572]" />
      </g>
    </g>
  </g>
  <path
     style="fill:#ffffff;stroke:none;stroke-width:14.3541;stroke-linecap:round"
     d="M 200.30868,315.44634 0.61736574,139.23445 0.54791732,119.85646 0.4784689,100.47847 H 400 799.52153 l -0.0598,19.37799 -0.0598,19.37799 L 599.87829,315.311 C 490.1403,412.15311 400.27486,491.44846 400.17733,491.5229 c -0.0975,0.0744 -90.03842,-79.16002 -199.86865,-176.07656 z"
     id="path1"
     transform="matrix(0.025,0,0,0.025,0,-2.5)" />
  <path
     style="fill:#ffffff;stroke:none;stroke-width:14.3541;stroke-linecap:round"
     d="m 0.4784689,473.56749 c 0,-222.91536 0.0247983,-225.93638 1.8439792,-224.64115 1.0141886,0.72209 90.6084199,79.6861 199.0982919,175.47557 108.48987,95.78948 197.86429,174.16268 198.60982,174.16268 0.74553,0 89.88825,-78.15789 198.09493,-173.68421 108.20669,-95.52631 197.78717,-174.47371 199.06773,-175.43866 l 2.32831,-1.75446 V 473.60439 699.52153 H 400 0.4784689 Z"
     id="path2"
     transform="matrix(0.025,0,0,0.025,0,-2.5)" />
</svg>
