<?xml version="1.0" encoding="UTF-8" standalone="no"?>
<!-- Uploaded to: SVG Repo, www.svgrepo.com, Generator: SVG Repo Mixer Tools -->

<svg
   width="800px"
   height="800px"
   viewBox="0 0 20 20"
   version="1.1"
   id="svg1"
   sodipodi:docname="github-142-svgrepo-com.svg"
   inkscape:version="1.3 (0e150ed6c4, 2023-07-21)"
   inkscape:export-filename="..\png72\github.png"
   inkscape:export-xdpi="8.6400003"
   inkscape:export-ydpi="8.6400003"
   xmlns:inkscape="http://www.inkscape.org/namespaces/inkscape"
   xmlns:sodipodi="http://sodipodi.sourceforge.net/DTD/sodipodi-0.dtd"
   xmlns="http://www.w3.org/2000/svg"
   xmlns:svg="http://www.w3.org/2000/svg">
  <sodipodi:namedview
     id="namedview1"
     pagecolor="#ffffff"
     bordercolor="#000000"
     borderopacity="0.25"
     inkscape:showpageshadow="2"
     inkscape:pageopacity="0.0"
     inkscape:pagecheckerboard="0"
     inkscape:deskcolor="#d1d1d1"
     inkscape:zoom="1.045"
     inkscape:cx="400"
     inkscape:cy="400"
     inkscape:window-width="1920"
     inkscape:window-height="1051"
     inkscape:window-x="-9"
     inkscape:window-y="-9"
     inkscape:window-maximized="1"
     inkscape:current-layer="svg1" />
  <title
     id="title1">github [#142]</title>
  <desc
     id="desc1">Created with Sketch.</desc>
  <defs
     id="defs1" />
  <g
     id="Page-1"
     stroke="none"
     stroke-width="1"
     fill="none"
     fill-rule="evenodd"
     style="display:none">
    <g
       id="Dribbble-Light-Preview"
       transform="translate(-140,-7559)"
       fill="#000000">
      <g
         id="icons"
         transform="translate(56,160)">
        <path
           d="m 94,7399 c 5.523,0 10,4.59 10,10.253 0,4.529 -2.862,8.371 -6.833,9.728 -0.507,0.101 -0.687,-0.219 -0.687,-0.492 0,-0.338 0.012,-1.442 0.012,-2.814 0,-0.956 -0.32,-1.58 -0.679,-1.898 2.227,-0.254 4.567,-1.121 4.567,-5.059 0,-1.12 -0.388,-2.034 -1.03,-2.752 0.104,-0.259 0.447,-1.302 -0.098,-2.714 0,0 -0.838,-0.275 -2.747,1.051 -0.799,-0.227 -1.655,-0.341 -2.505,-0.345 -0.85,0 -1.705,0.118 -2.503,0.345 -1.911,-1.326 -2.751,-1.051 -2.751,-1.051 -0.543,1.412 -0.2,2.455 -0.097,2.714 -0.639,0.718 -1.03,1.632 -1.03,2.752 0,3.928 2.335,4.808 4.556,5.067 -0.286,0.256 -0.545,0.708 -0.635,1.371 -0.57,0.262 -2.018,0.715 -2.91,-0.852 0,0 -0.529,-0.985 -1.533,-1.057 0,0 -0.975,-0.013 -0.068,0.623 0,0 0.655,0.315 1.11,1.5 0,0 0.587,1.83 3.369,1.21 0.005,0.857 0.014,1.665 0.014,1.909 0,0.271 -0.184,0.588 -0.683,0.493 C 86.865,7417.627 84,7413.783 84,7409.253 84,7403.59 88.478,7399 94,7399"
           id="github-[#142]" />
      </g>
    </g>
  </g>
  <path
     style="fill:#ffffff;stroke:none;stroke-width:14.3541;stroke-linecap:round"
     d="m 515.78947,799.01243 c -5.64133,-0.83262 -9.72472,-3.35007 -12.68351,-7.81947 l -2.62749,-3.969 -0.54441,-70.40624 c -0.52894,-68.40542 -0.60529,-70.67632 -2.68679,-79.91041 -3.83747,-17.02408 -10.03944,-30.2743 -19.0707,-40.74363 -2.26604,-2.62687 -3.77322,-4.77723 -3.34928,-4.7786 2.6838,-0.009 32.56084,-5.09945 39.39098,-6.71194 51.54182,-12.16821 86.26236,-34.06817 109.62064,-69.14313 19.15771,-28.76735 28.61437,-61.76763 31.23944,-109.01417 2.07012,-37.25835 -2.54764,-63.77968 -15.88011,-91.20484 -5.55124,-11.41898 -11.89799,-21.45205 -19.54634,-30.89922 l -4.8728,-6.01883 1.89459,-6.13398 c 6.5775,-21.29547 7.46777,-48.64812 2.3986,-73.69438 -0.74566,-3.68421 -2.93441,-11.73595 -4.86389,-17.89274 l -3.50815,-11.19419 -5.03179,-0.62868 c -6.43253,-0.8037 -19.19759,0.89534 -29.8606,3.97446 -20.51714,5.92465 -40.55863,15.66183 -65.09248,31.62528 l -10.81571,7.03746 -11.61053,-2.9312 c -28.62355,-7.22634 -53.24168,-9.99383 -88.76761,-9.97899 -34.54826,0.0144 -59.75363,2.89568 -88.23555,10.08625 l -11.30879,2.85503 -8.3618,-5.6006 c -36.84741,-24.67985 -76.25677,-39.69485 -97.2887,-37.06709 l -5.03665,0.62929 -3.05425,9.24573 c -1.67984,5.08515 -4.19833,14.64379 -5.59663,21.24143 -2.25118,10.62168 -2.54826,14.18788 -2.59369,31.13445 -0.0538,20.07361 0.96573,28.01668 5.30303,41.31563 l 1.92713,5.90892 -4.90017,6.0528 c -15.99899,19.7623 -27.51101,44.04505 -32.47176,68.49391 -7.24956,35.72919 -2.88056,90.53527 10.07299,126.35903 22.81867,63.10624 71.03598,97.72251 153.98239,110.54734 l 13.61887,2.1057 -4.64851,5.19002 c -8.08225,9.0238 -16.79131,28.81965 -18.65231,42.39713 -0.34193,2.49471 -1.10183,5.12352 -1.68865,5.8418 -1.46006,1.78713 -11.73493,5.67865 -22.11958,8.37758 -12.17717,3.16482 -32.0211,3.21112 -42.87973,0.10007 -20.13179,-5.76785 -33.86839,-17.15072 -49.25889,-40.81847 -15.91805,-24.47904 -32.05797,-37.21225 -53.58982,-42.27839 -11.13263,-2.61936 -25.07659,-0.26399 -26.85214,4.53578 -1.98045,5.35367 2.42642,11.20239 14.88894,19.76036 18.74339,12.87101 32.50323,31.4636 44.28117,59.83368 5.94517,14.32037 17.29327,28.30489 29.99104,36.9586 22.86584,15.58339 57.08439,20.59997 94.90268,13.91312 4.21053,-0.74448 8.20694,-1.36154 8.88091,-1.37123 0.9814,-0.0141 1.17194,8.23772 0.95694,41.44107 l -0.26847,41.45872 -2.69487,4.07095 c -3.50377,5.29291 -8.72485,7.69957 -16.7641,7.72745 -5.08811,0.0176 -8.31616,-0.84209 -20.0957,-5.35208 C 184.41878,764.74514 117.92115,711.56323 71.649834,643.0622 33.438101,586.49275 11.049086,525.08876 2.7387328,454.06699 0.36400708,433.77215 0.35816641,386.08291 2.7279504,366.02871 9.7044833,306.99009 26.08396,255.28771 53.042287,207.20978 121.8555,84.48714 246.48933,6.5790455 382.77512,1.0951296 480.47947,-2.8363328 569.65902,26.706511 647.59048,88.82151 c 16.37812,13.05413 46.30754,43.00483 59.46154,59.50385 52.6042,65.98123 81.80869,137.74433 90.73776,222.96651 1.86461,17.79643 1.55588,64.75069 -0.54423,82.77093 -9.64865,82.79165 -38.69019,153.26276 -89.42882,217.00458 -12.99448,16.32468 -44.86755,48.18289 -61.40525,61.37663 -13.85238,11.0514 -39.91261,28.74501 -54.26974,36.84649 -20.87028,11.77673 -58.55864,28.17476 -68.05688,29.61122 -2.45719,0.37161 -6.19012,0.42144 -8.29539,0.11071 z"
     id="path1"
     transform="scale(0.025)" />
</svg>
