<?xml version="1.0" encoding="UTF-8" standalone="no"?>
<!-- Uploaded to: SVG Repo, www.svgrepo.com, Generator: SVG Repo Mixer Tools -->

<svg
   width="800px"
   height="800px"
   viewBox="0 0 20 20"
   version="1.1"
   id="svg1"
   sodipodi:docname="instagram-167-svgrepo-com.svg"
   inkscape:version="1.3 (0e150ed6c4, 2023-07-21)"
   inkscape:export-filename="..\png72\instagram.png"
   inkscape:export-xdpi="8.6400003"
   inkscape:export-ydpi="8.6400003"
   xmlns:inkscape="http://www.inkscape.org/namespaces/inkscape"
   xmlns:sodipodi="http://sodipodi.sourceforge.net/DTD/sodipodi-0.dtd"
   xmlns="http://www.w3.org/2000/svg"
   xmlns:svg="http://www.w3.org/2000/svg">
  <sodipodi:namedview
     id="namedview1"
     pagecolor="#ffffff"
     bordercolor="#000000"
     borderopacity="0.25"
     inkscape:showpageshadow="2"
     inkscape:pageopacity="0.0"
     inkscape:pagecheckerboard="0"
     inkscape:deskcolor="#d1d1d1"
     inkscape:zoom="1.045"
     inkscape:cx="393.30144"
     inkscape:cy="413.39713"
     inkscape:window-width="1920"
     inkscape:window-height="1051"
     inkscape:window-x="-9"
     inkscape:window-y="-9"
     inkscape:window-maximized="1"
     inkscape:current-layer="svg1" />
  <title
     id="title1">instagram [#167]</title>
  <desc
     id="desc1">Created with Sketch.</desc>
  <defs
     id="defs1" />
  <g
     id="Page-1"
     stroke="none"
     stroke-width="1"
     fill="none"
     fill-rule="evenodd"
     style="display:none">
    <g
       id="Dribbble-Light-Preview"
       transform="translate(-340,-7439)"
       fill="#000000">
      <g
         id="icons"
         transform="translate(56,160)">
        <path
           d="m 289.86965,7279.1227 c -1.62788,0.074 -3.03885,0.4715 -4.17816,1.606 -1.1433,1.1405 -1.53634,2.5569 -1.60998,4.1678 -0.0458,1.0055 -0.31343,8.6017 0.4627,10.5938 0.52339,1.3439 1.55425,2.3772 2.91048,2.9023 0.63285,0.2461 1.35525,0.4129 2.41496,0.4615 8.86082,0.401 12.14544,0.1826 13.53053,-3.3638 0.24578,-0.6313 0.41493,-1.3529 0.4617,-2.41 0.40498,-8.8835 -0.0657,-10.8091 -1.60997,-12.3516 -1.22489,-1.2219 -2.66571,-2.0536 -12.38226,-1.606 m 0.0816,17.9448 c -0.97016,-0.044 -1.49653,-0.2055 -1.84778,-0.3415 -0.88359,-0.3434 -1.54729,-1.0045 -1.88858,-1.8829 -0.59106,-1.5137 -0.39503,-8.7029 -0.3423,-9.8662 0.0517,-1.1395 0.28259,-2.1807 1.08658,-2.9846 0.99504,-0.9926 2.28063,-1.479 11.03398,-1.0839 1.14231,0.052 2.1861,0.2819 2.99208,1.0839 0.99504,0.9925 1.48858,2.2878 1.08659,11.0076 -0.0438,0.9678 -0.20598,1.4928 -0.3423,1.8432 -0.90051,2.3077 -2.97218,2.6283 -11.77827,2.2244 m 8.13842,-13.3779 c 0,0.6571 0.53434,1.191 1.19405,1.191 0.65971,0 1.19504,-0.5339 1.19504,-1.191 0,-0.6571 -0.53533,-1.1911 -1.19504,-1.1911 -0.65971,0 -1.19405,0.534 -1.19405,1.1911 m -9.22699,5.2983 c 0,2.815 2.2876,5.0969 5.10952,5.0969 2.82193,0 5.10953,-2.2819 5.10953,-5.0969 0,-2.8149 -2.2876,-5.0958 -5.10953,-5.0958 -2.82192,0 -5.10952,2.2809 -5.10952,5.0958 m 1.79306,0 c 0,-1.8263 1.4846,-3.3082 3.31646,-3.3082 1.83187,0 3.31647,1.4819 3.31647,3.3082 0,1.8273 -1.4846,3.3093 -3.31647,3.3093 -1.83186,0 -3.31646,-1.482 -3.31646,-3.3093"
           id="instagram-[#167]" />
      </g>
    </g>
  </g>
  <path
     style="fill:#ffffff;stroke-width:14.3541;stroke-linecap:round"
     d="M 377.99043,601.81131 C 292.57216,592.8301 222.03476,531.50215 200.99163,447.9217 c -4.15726,-16.51208 -5.58041,-28.85536 -5.58041,-48.40017 0,-25.53051 3.04562,-43.64296 11.35673,-67.53893 21.34336,-61.36612 74.03227,-110.67862 136.89502,-128.12249 54.27953,-15.0621 112.32212,-7.2478 160.16478,21.56305 26.48851,15.95138 49.35417,38.15881 66.95571,65.02825 10.29319,15.71295 20.87109,40.21974 25.95554,60.13356 7.51133,29.41902 7.51133,68.4541 0,97.87313 -9.26135,36.27312 -27.45236,68.10042 -54.08531,94.62863 -33.29958,33.16864 -74.17396,52.89434 -120.94002,58.36486 -12.98056,1.51842 -31.27187,1.66891 -43.72324,0.35972 z m 48.08444,-72.11897 c 54.12817,-12.02821 94.81047,-54.2756 104.04463,-108.04735 1.89652,-11.04366 1.89652,-33.20326 0,-44.24691 -9.23338,-53.76716 -50.01093,-96.10947 -104.04463,-108.03715 -3.9233,-0.86605 -13.79453,-1.75582 -22.72559,-2.04844 -24.99434,-0.81892 -41.78522,2.74757 -63.63636,13.51674 -14.86746,7.32731 -25.78434,15.36358 -37.37538,27.51323 -18.01883,18.88721 -29.88743,42.17003 -34.528,67.7341 -2.21973,12.22809 -2.21973,34.66185 0,46.88995 5.92415,32.63509 24.43774,62.57138 51.27441,82.9102 15.17126,11.4979 37.89512,21.2046 57.94954,24.75364 10.12764,1.79229 39.26246,1.23504 49.04138,-0.93801 z"
     id="path1"
     transform="scale(0.025)" />
  <path
     style="fill:#ffffff;stroke-width:14.3541;stroke-linecap:round"
     d="m 600.08104,233.37878 c -16.02981,-3.75951 -30.12213,-18.04252 -34.54124,-35.00863 -6.23234,-23.92757 9.39862,-49.7337 34.1075,-56.31021 31.73399,-8.44631 63.66028,20.21673 58.34794,52.3841 -2.99606,18.14188 -16.48355,33.19161 -34.48471,38.47904 -5.63523,1.65522 -17.34397,1.88296 -23.42949,0.4557 z"
     id="path2"
     transform="scale(0.025)" />
  <path
     style="fill:#ffffff;stroke-width:14.3541;stroke-linecap:round"
     d="M 411.00478,799.32508 C 351.04851,798.8013 232.11674,794.16851 207.6555,791.40393 159.69023,785.98297 121.75489,771.95554 88.621135,747.38835 78.820333,740.1215 62.223675,724.1246 54.348313,714.35407 41.744394,698.71706 29.888067,678.43711 22.549071,659.96225 8.1242836,623.64995 0.52881694,532.45578 0.49040612,395.1172 0.47217952,329.94761 2.9173681,238.25405 5.3235689,213.8756 11.125735,155.09089 30.297083,109.44623 64.17234,73.763798 101.7137,34.219675 149.33534,13.111535 215.311,6.7720595 245.66149,3.855739 347.9665,0.86172938 417.70335,0.84894144 515.80247,0.83095263 570.59859,4.6049371 621.05263,14.854257 c 54.70548,11.112968 87.58828,29.414226 119.43858,66.474767 36.73382,42.742936 50.91421,91.650956 57.29744,197.618346 1.57153,26.08876 1.56211,145.62159 -0.0149,189.47368 -3.20856,89.21909 -4.55508,113.38267 -7.43892,133.49283 -6.17264,43.04439 -23.60696,85.29519 -47.40376,114.87956 -33.5276,41.6818 -84.78079,64.99319 -165.89754,75.45486 -41.63997,5.37032 -96.02307,7.68834 -166.02871,7.07678 z m 83.73206,-71.09713 c 106.27033,-3.86844 157.64168,-17.81956 188.91207,-51.30359 8.55635,-9.16206 14.08505,-17.50488 20.63525,-31.13864 13.63046,-28.37082 17.51346,-49.63487 20.06878,-109.90055 3.40162,-80.22519 3.83691,-99.50559 3.85636,-170.8134 0.0238,-87.3694 -1.35465,-115.00172 -7.70976,-154.54545 -7.14604,-44.46512 -17.79093,-68.3196 -40.56752,-90.9091 C 655.6815,95.565923 626.11765,82.827185 582.29665,77.547231 572.0252,76.309631 497.65275,73.13927 444.91662,71.690972 391.82109,70.232804 286.75005,71.039935 259.86708,73.11248 c -50.9233,3.925938 -83.67097,10.388228 -106.80368,21.076204 -12.05181,5.568283 -23.07607,13.540836 -34.44354,24.908996 -20.713133,20.71438 -32.690203,44.03401 -39.094368,76.11763 -4.582151,22.95569 -5.630516,41.60439 -7.370009,131.10048 -2.753515,141.66707 2.628301,262.09196 13.390855,299.63719 5.832946,20.34826 17.988752,39.96102 34.481092,55.63344 24.20674,23.00331 53.44623,35.11408 96.37505,39.91781 14.95565,1.67353 119.07323,5.87485 174.50661,7.04164 31.60562,0.66525 80.97168,0.51409 103.82775,-0.31792 z"
     id="path3"
     transform="scale(0.025)" />
</svg>
