<?xml version="1.0" encoding="UTF-8" standalone="no"?>
<svg
   width="1200"
   height="1200"
   viewBox="0 0 317.49999 317.50001"
   version="1.1"
   id="svg8"
   inkscape:version="1.3 (0e150ed6c4, 2023-07-21)"
   sodipodi:docname="tiktok.svg"
   inkscape:export-filename="..\png72\tiktok.png"
   inkscape:export-xdpi="5.7600002"
   inkscape:export-ydpi="5.7600002"
   xmlns:inkscape="http://www.inkscape.org/namespaces/inkscape"
   xmlns:sodipodi="http://sodipodi.sourceforge.net/DTD/sodipodi-0.dtd"
   xmlns="http://www.w3.org/2000/svg"
   xmlns:svg="http://www.w3.org/2000/svg"
   xmlns:rdf="http://www.w3.org/1999/02/22-rdf-syntax-ns#"
   xmlns:cc="http://creativecommons.org/ns#"
   xmlns:dc="http://purl.org/dc/elements/1.1/">
  <defs
     id="defs2" />
  <sodipodi:namedview
     id="base"
     pagecolor="#dedede"
     bordercolor="#666666"
     borderopacity="1.0"
     inkscape:pageopacity="0.0"
     inkscape:pageshadow="2"
     inkscape:zoom="0.175"
     inkscape:cx="-137.14286"
     inkscape:cy="942.85714"
     inkscape:document-units="px"
     inkscape:current-layer="layer1"
     inkscape:document-rotation="0"
     showgrid="false"
     units="px"
     inkscape:showpageshadow="2"
     inkscape:pagecheckerboard="0"
     inkscape:deskcolor="#d1d1d1"
     inkscape:window-width="1920"
     inkscape:window-height="1051"
     inkscape:window-x="-9"
     inkscape:window-y="-9"
     inkscape:window-maximized="1">
    <inkscape:grid
       type="xygrid"
       id="grid833"
       empspacing="4"
       spacingx="6.6145833"
       spacingy="6.6145833"
       originx="0"
       originy="0"
       units="px"
       visible="false" />
  </sodipodi:namedview>
  <metadata
     id="metadata5">
    <rdf:RDF>
      <cc:Work
         rdf:about="">
        <dc:format>image/svg+xml</dc:format>
        <dc:type
           rdf:resource="http://purl.org/dc/dcmitype/StillImage" />
      </cc:Work>
    </rdf:RDF>
  </metadata>
  <g
     inkscape:label="Layer 1"
     inkscape:groupmode="layer"
     id="layer1">
    <path
       d="m 176.84246,12.826129 v 66.553286 40.254175 87.05194 0.1939 h -0.031 c -0.01,4.39314 -0.70154,8.75815 -2.04929,12.93944 -1.37801,4.24136 -3.41498,8.23942 -6.03615,11.8474 -2.62138,3.60803 -5.79434,6.78098 -9.40237,9.40236 -3.60814,2.6215 -7.60645,4.65872 -11.84812,6.03687 -4.24127,1.37814 -8.67304,2.08017 -13.1326,2.08029 -4.45981,-5e-5 -8.89184,-0.70208 -13.13334,-2.08029 -4.24165,-1.37815 -8.23996,-3.41537 -11.84812,-6.03687 -3.60776,-2.62143 -6.78048,-5.79439 -9.401641,-9.40236 -2.621423,-3.60794 -4.658647,-7.606 -6.036863,-11.8474 -1.378217,-4.24149 -2.080241,-8.67353 -2.080297,-13.13334 5.6e-5,-4.45979 0.70208,-8.89183 2.080297,-13.13332 1.378216,-4.2414 3.41544,-8.23948 6.036863,-11.8474 2.621161,-3.60797 5.793881,-6.78093 9.401641,-9.40237 3.60816,-2.62149 7.60647,-4.65871 11.84812,-6.03687 4.24154,-1.37797 8.67357,-2.07974 13.13334,-2.07956 1.48385,0 2.96668,0.0777 4.4424,0.23282 1.47561,0.15502 2.94209,0.3872 4.3934,0.69559 1.45138,0.30845 2.88562,0.69269 4.2968,1.15115 1.41135,0.45862 2.79771,0.99083 4.15337,1.59446 0.82151,0.38606 1.63045,0.79834 2.42556,1.23621 v -57.28571 c -1.96087,-0.41719 -3.93424,-0.77345 -5.91722,-1.06826 -2.28362,-0.32831 -4.57826,-0.57499 -6.87949,-0.73956 -2.30127,-0.16444 -4.60769,-0.24667 -6.91482,-0.24651 -6.34909,-2e-4 -12.68287,0.62342 -18.90999,1.86187 -6.22717,1.23884 -12.31758,3.08653 -18.183401,5.51644 -5.865964,2.42956 -11.479065,5.42962 -16.758332,8.9569 -5.279017,3.52733 -10.198728,7.56484 -14.688173,12.05426 -4.489462,4.48968 -8.526959,9.40961 -12.054267,14.68888 -3.52749,5.279 -6.527789,10.89185 -8.957626,16.7576 -2.429657,5.86586 -4.277108,11.95627 -5.515712,18.18341 -1.238687,6.22709 -1.862557,12.56087 -1.862599,18.90997 4.2e-5,6.34911 0.623912,12.6829 1.862599,18.90999 1.238604,6.22714 3.086055,12.31755 5.515712,18.1834 2.429837,5.86574 5.430136,11.47861 8.957626,16.75761 3.527308,5.27927 7.564805,10.1992 12.054267,14.68887 4.489445,4.48942 9.409156,8.52693 14.688173,12.05427 5.279239,3.52753 10.89234,6.52783 16.758332,8.95763 5.865851,2.42965 11.956261,4.2771 18.183401,5.51571 6.2271,1.23869 12.56089,1.86254 18.90999,1.8626 6.34911,-6e-5 12.68288,-0.62391 18.90998,-1.8626 6.22713,-1.23861 12.31755,-3.08606 18.1834,-5.51571 5.86575,-2.42984 11.4786,-5.43014 16.7576,-8.95763 5.27902,-3.52734 10.19872,-7.56485 14.68815,-12.05427 4.48972,-4.48963 8.52746,-9.40958 12.055,-14.68887 3.52723,-5.27903 6.5273,-10.89189 8.9569,-16.75761 2.42965,-5.86585 4.2771,-11.95626 5.51571,-18.1834 1.23868,-6.22709 1.86255,-12.56088 1.8626,-18.90999 v -89.96261 c 3.0094,2.31409 6.12072,4.4927 9.32452,6.52918 6.42841,3.71134 13.16881,6.85433 20.14403,9.393 6.97515,2.53884 14.15885,4.46381 21.46889,5.75287 0.35067,0.0322 0.70147,0.0629 1.05239,0.0922 V 82.383717 c -3.62965,-0.963926 -7.17968,-2.206226 -10.61839,-3.715825 -4.93011,-2.374081 -9.57809,-5.294459 -13.85631,-8.706063 -4.27813,-3.411701 -8.15962,-7.293195 -11.57132,-11.571321 -3.41186,-4.278182 -6.33247,-8.926172 -8.70679,-13.856316 -2.37417,-4.930186 -4.18712,-10.111561 -5.40469,-15.446441 -1.21767,-5.334825 -1.83231,-10.789667 -1.83233,-16.261692 z"
       style="fill:#ffffff;stroke-width:7.28236;stroke-linecap:round"
       id="path7" />
  </g>
</svg>
