<?xml version="1.0" encoding="UTF-8" standalone="no"?>
<!-- Uploaded to: SVG Repo, www.svgrepo.com, Generator: SVG Repo Mixer Tools -->

<svg
   width="800px"
   height="800px"
   viewBox="-4 0 20 20"
   version="1.1"
   id="svg1"
   sodipodi:docname="tumblr-181-svgrepo-com.svg"
   inkscape:export-filename="..\png72\tumblr.png"
   inkscape:export-xdpi="8.6400003"
   inkscape:export-ydpi="8.6400003"
   inkscape:version="1.3 (0e150ed6c4, 2023-07-21)"
   xmlns:inkscape="http://www.inkscape.org/namespaces/inkscape"
   xmlns:sodipodi="http://sodipodi.sourceforge.net/DTD/sodipodi-0.dtd"
   xmlns="http://www.w3.org/2000/svg"
   xmlns:svg="http://www.w3.org/2000/svg">
  <sodipodi:namedview
     id="namedview1"
     pagecolor="#ffffff"
     bordercolor="#000000"
     borderopacity="0.25"
     inkscape:showpageshadow="2"
     inkscape:pageopacity="0.0"
     inkscape:pagecheckerboard="0"
     inkscape:deskcolor="#d1d1d1"
     inkscape:zoom="1.045"
     inkscape:cx="400"
     inkscape:cy="400"
     inkscape:window-width="1920"
     inkscape:window-height="1051"
     inkscape:window-x="-9"
     inkscape:window-y="-9"
     inkscape:window-maximized="1"
     inkscape:current-layer="svg1" />
  <title
     id="title1">tumblr [#181]</title>
  <desc
     id="desc1">Created with Sketch.</desc>
  <defs
     id="defs1" />
  <g
     id="Page-1"
     stroke="none"
     stroke-width="1"
     fill="none"
     fill-rule="evenodd"
     style="display:none">
    <g
       id="Dribbble-Light-Preview"
       transform="translate(-184,-7399)"
       fill="#000000">
      <g
         id="icons"
         transform="translate(56,160)">
        <path
           d="M 139.00148,7254.975 140,7257.827 c -0.37706,0.531 -2.08791,1.146 -3.62329,1.171 -4.55079,0.075 -6.28776,-3.103 -6.28776,-5.341 V 7247 H 128 v -2.461 c 3.16999,-1.094 3.93141,-3.831 4.11002,-5.39 0.0125,-0.107 0.10027,-0.149 0.15145,-0.149 h 3.04987 v 5 h 4.17791 v 3 h -4.17791 v 6.349 c 0,0.846 0.33528,2.014 2.00749,1.971 0.55461,-0.013 1.2941,-0.168 1.68265,-0.345"
           id="tumblr-[#181]" />
      </g>
    </g>
  </g>
  <path
     style="fill:#ffffff;stroke-width:14.3541;stroke-linecap:round"
     d="m 460.28708,798.42163 c -1.57895,-0.18407 -6.96172,-0.79258 -11.96172,-1.35223 -13.23129,-1.48102 -35.22626,-6.03775 -48.36897,-10.02071 -51.8852,-15.72403 -93.05334,-45.93176 -121.24128,-88.96257 -15.49795,-23.65868 -24.65635,-46.19766 -31.58534,-77.73209 -2.04292,-9.2975 -2.05603,-10.15554 -2.36968,-155.04303 l -0.3154,-145.69378 h -42.0788 -42.07881 v -48.83385 c 0,-45.65347 0.10907,-48.87097 1.67464,-49.40353 23.49883,-7.99371 49.56254,-22.01722 70.39609,-37.87645 36.97363,-28.14563 67.06276,-73.56892 81.36261,-122.826971 4.31421,-14.860955 7.8094,-30.730817 9.78055,-44.408476 C 325.28853,3.8641449 325.91781,2.1997302 329.30708,0.91113148 330.73225,0.36928517 356.11288,0 391.92833,0 h 60.22478 v 100 100 h 83.25359 83.25359 v 59.80861 59.80861 H 535.4067 452.15311 v 132.41054 c 0,140.5129 -0.008,140.23971 4.45053,154.19234 5.4072,16.92186 17.41623,31.40791 31.91311,38.4956 9.66541,4.72554 16.55995,6.59719 29.30314,7.95487 19.34789,2.06137 49.08987,-1.89102 72.94005,-9.69294 4.91796,-1.60878 9.04488,-2.78617 9.17092,-2.61641 0.12604,0.16975 9.06737,25.61795 19.86964,56.55155 l 19.64047,56.2429 -5.51038,5.10164 c -18.55835,17.18176 -66.9739,34.03927 -112.87796,39.30228 -11.68274,1.33945 -51.78969,1.90842 -60.76555,0.86204 z"
     id="path1"
     transform="matrix(0.025,0,0,0.025,-4,0)" />
</svg>
