<?xml version="1.0" encoding="UTF-8" standalone="no"?>
<!-- Uploaded to: SVG Repo, www.svgrepo.com, Generator: SVG Repo Mixer Tools -->

<svg
   width="800px"
   height="800px"
   viewBox="0 -2 20 20"
   version="1.1"
   id="svg1"
   sodipodi:docname="twitter-154-svgrepo-com.svg"
   inkscape:version="1.3 (0e150ed6c4, 2023-07-21)"
   inkscape:export-filename="..\png72\twitter.png"
   inkscape:export-xdpi="8.6400003"
   inkscape:export-ydpi="8.6400003"
   xmlns:inkscape="http://www.inkscape.org/namespaces/inkscape"
   xmlns:sodipodi="http://sodipodi.sourceforge.net/DTD/sodipodi-0.dtd"
   xmlns="http://www.w3.org/2000/svg"
   xmlns:svg="http://www.w3.org/2000/svg">
  <sodipodi:namedview
     id="namedview1"
     pagecolor="#ffffff"
     bordercolor="#000000"
     borderopacity="0.25"
     inkscape:showpageshadow="2"
     inkscape:pageopacity="0.0"
     inkscape:pagecheckerboard="0"
     inkscape:deskcolor="#d1d1d1"
     inkscape:zoom="1.045"
     inkscape:cx="400"
     inkscape:cy="400"
     inkscape:window-width="1920"
     inkscape:window-height="1051"
     inkscape:window-x="-9"
     inkscape:window-y="-9"
     inkscape:window-maximized="1"
     inkscape:current-layer="svg1" />
  <title
     id="title1">twitter [#154]</title>
  <desc
     id="desc1">Created with Sketch.</desc>
  <defs
     id="defs1" />
  <g
     id="Page-1"
     stroke="none"
     stroke-width="1"
     fill="none"
     fill-rule="evenodd"
     style="display:none">
    <g
       id="Dribbble-Light-Preview"
       transform="translate(-60,-7521)"
       fill="#000000">
      <g
         id="icons"
         transform="translate(56,160)">
        <path
           d="m 10.29,7377 c 7.547,0 11.675,-6.1564 11.675,-11.4945 0,-0.1753 0,-0.3496 -0.012,-0.5228 0.803,-0.5711 1.496,-1.2799 2.047,-2.0912 -0.748,0.3269 -1.543,0.5415 -2.356,0.636 0.856,-0.5051 1.497,-1.2986 1.804,-2.2349 -0.806,0.4706 -1.687,0.8024 -2.606,0.9806 -1.554,-1.6265 -4.153,-1.7052 -5.806,-0.1752 -1.065,0.9865 -1.518,2.4574 -1.187,3.8603 -3.299,-0.1634 -6.373,-1.6973 -8.457,-4.2207 -1.089,1.846 -0.532,4.207 1.271,5.3924 -0.653,-0.019 -1.292,-0.192 -1.863,-0.5051 v 0.051 c 0.001,1.9228 1.378,3.5788 3.292,3.9598 -0.604,0.1625 -1.238,0.1861 -1.852,0.069 0.537,1.6462 2.078,2.7735 3.833,2.806 -1.453,1.1243 -3.248,1.7347 -5.096,1.7328 -0.326,-0 -0.652,-0.02 -0.977,-0.058 1.877,1.1854 4.06,1.8145 6.29,1.8115"
           id="twitter-[#154]" />
      </g>
    </g>
  </g>
  <path
     style="fill:#ffffff;stroke-width:14.3541;stroke-linecap:round"
     d="M 228.70813,719.02098 C 164.02601,715.479 100.65189,699.08784 44.046751,671.25989 31.320411,665.00343 6.8994137,651.62692 5.0714216,649.9113 c -0.3686128,-0.34595 13.8419134,-0.629 31.5789474,-0.629 35.28138,0 45.966926,-0.93396 71.005131,-6.2061 46.21595,-9.7314 90.06172,-28.94849 126.30693,-55.35885 l 10.03899,-7.31499 -11.95286,-1.14945 c -29.2885,-2.81655 -53.90417,-11.53355 -78.43042,-27.77413 -14.97777,-9.91784 -34.15561,-28.99499 -43.90957,-43.679 -6.93121,-10.43456 -13.443073,-23.06786 -17.280136,-33.52426 l -2.065527,-5.62877 3.143905,0.64265 c 12.871538,2.63108 34.321398,2.84865 50.844898,0.51572 8.17913,-1.1548 20.03814,-3.82038 19.47996,-4.37856 -0.22994,-0.22994 -4.88948,-1.62401 -10.35453,-3.09795 C 93.847242,446.24633 48.926628,399.29711 35.998098,339.54424 c -1.686949,-7.79671 -4.29807,-32.3001 -3.526503,-33.09353 0.132565,-0.13633 3.903817,1.46858 8.380561,3.56646 17.219791,8.06946 39.163322,13.8776 56.809938,15.03675 4.970056,0.32647 9.036466,0.36624 9.036466,0.0884 0,-0.27787 -2.90669,-2.63448 -6.45933,-5.23692 -29.565272,-21.65769 -50.249667,-51.41013 -60.408086,-86.89102 -8.44086,-29.48187 -7.593266,-62.25533 2.388233,-92.34449 3.316029,-9.99615 12.366582,-29.71061 13.59567,-29.61491 0.354356,0.0276 2.797393,2.68381 5.428972,5.90269 7.919876,9.68741 31.774303,33.8483 44.182861,44.75049 32.06459,28.17204 64.9975,50.17554 103.18556,68.94145 41.77882,20.53044 85.7394,34.74574 129.99835,42.03689 17.6867,2.91367 43.16561,5.78243 51.35681,5.78243 h 4.532 l -1.27597,-5.98086 c -6.77592,-31.76054 -1.94373,-68.87855 13.00031,-99.86065 14.82048,-30.72592 42.5457,-58.88973 73.09175,-74.247988 34.14021,-17.165362 72.35979,-22.047473 109.67953,-14.010297 28.29173,6.092905 56.14133,20.557915 76.61489,39.793575 4.06135,3.81579 8.20488,6.9378 9.20782,6.9378 3.30607,0 31.19323,-7.41754 42.40695,-11.27956 17.07575,-5.88093 27.92617,-10.45375 43.97227,-18.53177 8.13212,-4.09392 14.9137,-7.315458 15.07019,-7.158976 0.45836,0.458371 -4.35308,11.846166 -8.43674,19.968136 -10.80419,21.48847 -27.66279,41.56337 -47.07454,56.05545 -4.83688,3.61104 -10.19386,7.375 -11.90439,8.36435 -3.59451,2.07906 -4.08408,3.54747 -0.95693,2.87026 1.18421,-0.25646 5.59808,-0.94569 9.80861,-1.53163 20.20913,-2.81234 44.6921,-9.18142 66.02526,-17.17602 7.02412,-2.63229 13.05708,-4.78598 13.40659,-4.78598 0.3495,0 -0.99806,2.26076 -2.99459,5.02392 -18.23562,25.23783 -44.62395,52.05474 -70.3225,71.46459 l -5.80555,4.38488 0.1108,16.74034 c 0.82004,123.89524 -52.22287,249.56276 -142.17486,336.83603 -25.59669,24.83443 -50.5088,44.04568 -81.50127,62.85061 -12.8339,7.78708 -48.77354,25.50628 -63.36865,31.24244 -40.94892,16.09372 -84.08209,26.26361 -130.63718,30.80147 -14.836,1.44611 -58.19624,2.52324 -71.73327,1.78196 z"
     id="path1"
     transform="matrix(0.025,0,0,0.025,0,-2)" />
</svg>
