<?xml version="1.0" encoding="UTF-8" standalone="no"?>
<!-- Uploaded to: SVG Repo, www.svgrepo.com, Generator: SVG Repo Mixer Tools -->

<svg
   width="800px"
   height="800px"
   viewBox="0 -3 20 20"
   version="1.1"
   id="svg1"
   sodipodi:docname="youtube-168-svgrepo-com.svg"
   inkscape:export-filename="..\png72\youtube.png"
   inkscape:export-xdpi="8.6400003"
   inkscape:export-ydpi="8.6400003"
   inkscape:version="1.3 (0e150ed6c4, 2023-07-21)"
   xmlns:inkscape="http://www.inkscape.org/namespaces/inkscape"
   xmlns:sodipodi="http://sodipodi.sourceforge.net/DTD/sodipodi-0.dtd"
   xmlns="http://www.w3.org/2000/svg"
   xmlns:svg="http://www.w3.org/2000/svg">
  <sodipodi:namedview
     id="namedview1"
     pagecolor="#ffffff"
     bordercolor="#000000"
     borderopacity="0.25"
     inkscape:showpageshadow="2"
     inkscape:pageopacity="0.0"
     inkscape:pagecheckerboard="0"
     inkscape:deskcolor="#d1d1d1"
     inkscape:zoom="1.045"
     inkscape:cx="400"
     inkscape:cy="400"
     inkscape:window-width="1920"
     inkscape:window-height="1051"
     inkscape:window-x="-9"
     inkscape:window-y="-9"
     inkscape:window-maximized="1"
     inkscape:current-layer="svg1" />
  <title
     id="title1">youtube [#168]</title>
  <desc
     id="desc1">Created with Sketch.</desc>
  <defs
     id="defs1" />
  <g
     id="Page-1"
     stroke="none"
     stroke-width="1"
     fill="none"
     fill-rule="evenodd"
     style="display:none">
    <g
       id="Dribbble-Light-Preview"
       transform="translate(-300,-7442)"
       fill="#000000">
      <g
         id="icons"
         transform="translate(56,160)">
        <path
           d="m 251.98843,7291.5859 v -5.6117 c 1.99221,0.9375 3.53517,1.843 5.36003,2.8193 -1.50511,0.8347 -3.36782,1.7712 -5.36003,2.7924 m 11.10257,-8.403 c -0.34366,-0.4528 -0.92937,-0.8048 -1.55293,-0.9215 -1.83283,-0.348 -13.2671,-0.349 -15.09893,0 -0.50004,0.094 -0.9453,0.3201 -1.32781,0.6722 -1.61169,1.4959 -1.10667,9.5179 -0.71819,10.8174 0.16336,0.5624 0.37454,0.9683 0.6405,1.2346 0.34266,0.352 0.81182,0.5943 1.35071,0.703 1.5091,0.3122 9.28369,0.4867 15.12185,0.047 0.53789,-0.094 1.01403,-0.344 1.38956,-0.711 1.49017,-1.49 1.38857,-9.9628 0.19524,-11.8416"
           id="youtube-[#168]" />
      </g>
    </g>
  </g>
  <path
     style="fill:#ffffff;stroke-width:14.3541;stroke-linecap:round"
     d="M 275.59809,678.47174 C 191.855,676.40943 128.74479,672.57692 101.09498,667.87467 66.140461,661.93015 40.555745,644.72283 27.272557,618.22449 18.849205,601.42093 14.215238,585.17806 10.606957,559.80861 -0.01904469,485.09833 -2.4795615,370.87016 4.8250682,291.38756 10.785271,226.53385 23.722433,181.05431 41.875581,161.13953 55.543627,146.14509 77.337931,134.72658 100,130.68687 c 34.7518,-6.1948 150.62619,-10.10786 299.04306,-10.09864 148.9394,0.009 264.38488,3.87715 300.09422,10.05438 21.20309,3.66784 40.23971,13.18772 55.17958,27.59435 8.35761,8.05929 11.44647,12.69847 16.48703,24.76193 28.82705,68.99122 37.74268,248.79907 18.1201,365.44077 -6.76335,40.20307 -16.81916,70.37416 -28.84986,86.56003 -6.13922,8.2596 -18.37585,17.72999 -30.88753,23.90503 -14.29278,7.05408 -23.72505,9.5696 -40.68697,10.85088 -36.17927,2.73294 -96.51256,5.67942 -159.7915,7.80373 -38.75615,1.30105 -211.97354,1.92547 -253.11004,0.91241 z M 399.52153,463.13082 c 82.31896,-42.15808 135.5261,-70.59438 134.28701,-71.769 -1.34901,-1.27883 -115.17485,-63.06506 -141.97666,-77.0669 -22.84856,-11.93657 -70.99812,-35.82602 -72.2079,-35.82602 -0.26687,0 -0.48522,50.8357 -0.48522,112.96822 v 112.96822 l 20.33492,-10.46814 c 11.18421,-5.75749 38.20575,-19.62036 60.04785,-30.80638 z"
     id="path1"
     transform="matrix(0.025,0,0,0.025,0,-3)" />
</svg>
